<svg width="57" height="43" viewBox="0 0 57 43" fill="none" xmlns="http://www.w3.org/2000/svg">
<path fill-rule="evenodd" clip-rule="evenodd" d="M12.2891 11.176C13.7861 9.64226 15.3641 9.63315 16.4551 10.2058C19.1361 11.6122 19.66 15.9332 19.9211 19.0249C20.1294 21.494 20.4537 23.6541 20.8613 26.0687C21.3059 28.7022 21.7843 33.498 22.5214 35.7088C22.9839 37.0963 23.8476 37.8841 24.9064 38.3788C28.4137 40.0177 36.3876 41.2566 38.4165 36.9214C36.9185 38.456 35.3405 38.4643 34.2498 37.8917C31.5688 36.4861 31.0439 32.1649 30.7828 29.0733C30.5751 26.6042 30.2502 24.444 29.8432 22.0295C29.399 19.396 28.9203 14.6009 28.1831 12.3893C27.7206 11.0017 26.8573 10.2149 25.7974 9.71948C22.2908 8.08048 14.3173 6.8406 12.2891 11.176Z" fill="#4C91FA"/>
<path fill-rule="evenodd" clip-rule="evenodd" d="M19.3071 18.7973C17.3149 22.8114 14.6308 28.0716 12.6883 31.9911C12.6724 32.0858 12.6425 32.1777 12.5993 32.2638L10.2563 36.9597C10.1388 37.1966 9.93161 37.3775 9.68037 37.4626C9.42905 37.5478 9.15407 37.5303 8.91577 37.4141C8.67969 37.297 8.49977 37.0917 8.41513 36.8429C8.33049 36.5943 8.34797 36.3224 8.46385 36.0864C9.47114 34.0693 10.3864 32.1478 11.3815 30.1537C11.497 29.9178 11.5144 29.6461 11.4298 29.3976C11.3452 29.1491 11.1654 28.9439 10.9295 28.8267C10.6912 28.7104 10.4162 28.6929 10.1649 28.7781C9.91361 28.8633 9.70655 29.0441 9.58903 29.2811C8.48237 31.4998 7.37593 33.7181 6.26971 35.9362C6.15234 36.1736 5.94527 36.3544 5.69395 36.4399C5.44263 36.525 5.16758 36.5072 4.9292 36.3907C4.69343 36.2739 4.51373 36.0686 4.42901 35.8204C4.34437 35.5719 4.36178 35.3003 4.47736 35.0646C5.41459 33.187 6.33211 31.3299 7.26793 29.4553C7.38351 29.2195 7.40092 28.9478 7.3162 28.6993C7.23163 28.4507 7.05179 28.2455 6.81594 28.1284C6.57763 28.0123 6.30273 27.9949 6.05148 28.08C5.80024 28.1652 5.59317 28.346 5.47551 28.5828C4.70101 30.1347 3.92198 31.6124 3.15433 33.1522C2.91015 33.6415 2.35626 33.6825 1.81382 33.6067C1.27064 33.5255 1.11698 32.7689 1.36116 32.2789L1.9158 31.1693L1.88612 31.1648C4.7771 25.2473 5.7661 23.1955 8.78717 17.3445C9.59662 15.7654 10.4974 13.7856 11.4735 12.3632C11.612 12.1612 11.7548 11.9733 11.902 11.7997C13.3581 10.4007 15.1752 10.3885 16.045 10.8446C18.4486 12.1049 19.0068 15.8358 19.3071 18.7973ZM1.46618 35.157L0.101279 37.8903C-0.0143036 38.1263 -0.0317084 38.3983 0.0529333 38.6468C0.137501 38.8956 0.317347 39.1009 0.553198 39.218C0.791578 39.3342 1.06648 39.3517 1.31772 39.2666C1.56897 39.1814 1.77604 39.0006 1.8937 38.7636L3.25853 36.0296C3.37419 35.7937 3.39152 35.522 3.30688 35.2736C3.22231 35.025 3.04246 34.8197 2.80661 34.7026C2.56831 34.5864 2.29341 34.569 2.04216 34.6541C1.79092 34.7395 1.58385 34.9201 1.46618 35.157ZM2.60736 39.5501L1.59627 41.5705C1.48091 41.8071 1.46425 42.0795 1.54971 42.3283C1.63524 42.5768 1.81605 42.7817 2.05272 42.8982C2.2911 43.0144 2.566 43.0319 2.81718 42.9467C3.0685 42.8616 3.27556 42.6807 3.39323 42.4438L4.40201 40.4223C4.51804 40.1867 4.5356 39.9151 4.45088 39.6666C4.36624 39.4181 4.18617 39.2131 3.9501 39.0963C3.71179 38.9798 3.43667 38.962 3.18527 39.0468C2.9338 39.1319 2.72651 39.3128 2.60884 39.5501H2.60736ZM6.16097 37.3867L5.60024 38.5085C5.48495 38.7448 5.46829 39.0171 5.55375 39.2656C5.63928 39.5141 5.8201 39.7191 6.05669 39.8356C6.29507 39.9517 6.57004 39.9692 6.82129 39.8841C7.07261 39.7989 7.27976 39.618 7.3972 39.3811L7.95793 38.2593C8.07351 38.0234 8.09092 37.7518 8.00628 37.5032C7.92163 37.2548 7.74186 37.0494 7.50601 36.9323C7.38775 36.8742 7.25908 36.8399 7.12743 36.8309C6.99578 36.8224 6.86376 36.8395 6.73881 36.8818C6.61385 36.9241 6.49857 36.9904 6.39935 37.0772C6.3002 37.1636 6.21921 37.2689 6.16097 37.3867Z" fill="#2B79EE"/>
<path fill-rule="evenodd" clip-rule="evenodd" d="M40.6605 10.4089L34.7882 9.5334L56.9999 0C51.581 11.0512 46.6891 21.7646 40.643 32.5174C40.4094 32.9331 39.7347 33.1717 39.238 32.9036C38.8889 32.715 38.5304 32.2371 38.8901 31.5623L41.9662 25.7818C42.3709 25.0244 42.1 24.4806 41.7004 24.2412C41.244 23.9701 40.6051 24.0966 40.1599 24.932L36.9829 30.9019C36.0204 32.709 34.3796 31.6592 35.1746 30.0747C36.3377 27.7609 37.5626 25.4243 38.7998 23.0999C39.6602 21.4828 37.8709 20.6004 36.9945 22.25L34.8042 26.3658C34.5567 26.83 34.0241 27.1345 33.6119 27.083C33.0481 27.0119 32.6557 26.3855 33.0481 25.5985C35.578 20.5315 38.1154 15.4683 40.6605 10.4089ZM32.6023 28.75L32.0424 29.8725C31.9265 30.1083 31.9092 30.3801 31.9939 30.6287C32.0783 30.8772 32.2584 31.0824 32.4943 31.1995C32.7325 31.3158 33.0075 31.3332 33.2587 31.2481C33.5099 31.1629 33.7168 30.9819 33.8341 30.745L34.3949 29.6226C34.5105 29.3868 34.5278 29.115 34.4431 28.8665C34.3584 28.618 34.1786 28.4128 33.9428 28.2956C33.7045 28.1791 33.4295 28.1615 33.1783 28.2467C32.9268 28.3319 32.7198 28.5129 32.6023 28.75ZM35.9932 33.0113L34.6285 35.7446C34.5125 35.9803 34.4949 36.2522 34.5796 36.5007C34.6643 36.7493 34.8444 36.9545 35.0803 37.0717C35.3188 37.1878 35.5939 37.205 35.845 37.1199C36.0965 37.0347 36.3038 36.8542 36.4215 36.6172L37.7856 33.8829C37.9015 33.6473 37.9188 33.3754 37.8343 33.1268C37.7496 32.8782 37.5696 32.673 37.3337 32.5559C37.0952 32.4397 36.8201 32.4223 36.569 32.5077C36.3175 32.593 36.1105 32.774 35.9932 33.0113Z" fill="#2B79EE"/>
</svg>
